<svg id="Layer_1" data-name="Layer 1" xmlns="http://www.w3.org/2000/svg" xmlns:xlink="http://www.w3.org/1999/xlink" viewBox="0 0 150 150"><defs><style>.cls-1{fill:none;}.cls-2{opacity:0.7;}.cls-3{clip-path:url(#clip-path);}.cls-4{fill:#457699;}</style><clipPath id="clip-path"><rect class="cls-1" x="3.43" y="3.43" width="143.14" height="143.14"/></clipPath></defs><title>calendario</title><g class="cls-2"><g class="cls-3"><path class="cls-4" d="M129.79,14.61h-6.71V3.43H111.9V14.61H38.1V3.43H26.92V14.61H20.21A16.8,16.8,0,0,0,3.43,31.39v98.4a16.8,16.8,0,0,0,16.78,16.78H129.79a16.8,16.8,0,0,0,16.78-16.78V31.39A16.8,16.8,0,0,0,129.79,14.61ZM20.21,25.8h6.71V37H38.1V25.8h73.8V37h11.18V25.8h6.71a5.6,5.6,0,0,1,5.6,5.59V44.81H14.61V31.39A5.6,5.6,0,0,1,20.21,25.8ZM129.79,135.39H20.21a5.6,5.6,0,0,1-5.6-5.6V56H135.39v73.8A5.6,5.6,0,0,1,129.79,135.39Z"/><rect class="cls-4" x="24.68" y="67.73" width="11.18" height="11.18"/><rect class="cls-4" x="47.04" y="67.73" width="11.18" height="11.18"/><rect class="cls-4" x="69.41" y="67.73" width="11.18" height="11.18"/><rect class="cls-4" x="91.77" y="67.73" width="11.18" height="11.18"/><rect class="cls-4" x="114.14" y="67.73" width="11.18" height="11.18"/><rect class="cls-4" x="24.68" y="90.1" width="11.18" height="11.18"/><rect class="cls-4" x="47.04" y="90.1" width="11.18" height="11.18"/><rect class="cls-4" x="69.41" y="90.1" width="11.18" height="11.18"/><rect class="cls-4" x="91.77" y="90.1" width="11.18" height="11.18"/><rect class="cls-4" x="24.68" y="112.46" width="11.18" height="11.18"/><rect class="cls-4" x="47.04" y="112.46" width="11.18" height="11.18"/><rect class="cls-4" x="69.41" y="112.46" width="11.18" height="11.18"/><rect class="cls-4" x="91.77" y="112.46" width="11.18" height="11.18"/><rect class="cls-4" x="114.14" y="90.1" width="11.18" height="11.18"/></g></g></svg>