<svg id="Layer_1" data-name="Layer 1" xmlns="http://www.w3.org/2000/svg" xmlns:xlink="http://www.w3.org/1999/xlink" viewBox="0 0 150 150"><defs><style>.cls-1{fill:none;}.cls-2{opacity:0.7;}.cls-3{clip-path:url(#clip-path);}.cls-4{fill:#457699;}</style><clipPath id="clip-path"><rect class="cls-1" x="3.19" y="1.19" width="143.61" height="143.61"/></clipPath></defs><title>ciudad</title><g class="cls-2"><g class="cls-3"><path class="cls-4" d="M145.28,62.58,77.2,12.74a3.74,3.74,0,0,0-4.41,0L4.72,62.58a3.73,3.73,0,1,0,4.41,6L75,20.37,140.87,68.6a3.69,3.69,0,0,0,2.2.72,3.73,3.73,0,0,0,2.21-6.74Z"/><path class="cls-4" d="M127.24,69.45a3.73,3.73,0,0,0-3.73,3.73v59.39H93.66V100.15a18.66,18.66,0,1,0-37.32,0v32.42H26.49V73.18a3.73,3.73,0,1,0-7.46,0v63.13A3.73,3.73,0,0,0,22.76,140H60.07a3.74,3.74,0,0,0,3.72-3.44,2.71,2.71,0,0,0,0-.29V100.15a11.2,11.2,0,0,1,22.39,0v36.16a2.3,2.3,0,0,0,0,.28A3.73,3.73,0,0,0,89.93,140h37.31a3.73,3.73,0,0,0,3.73-3.73V73.18A3.73,3.73,0,0,0,127.24,69.45Z"/><rect class="cls-4" x="19.03" y="54.43" width="7.46" height="35.34"/><rect class="cls-4" x="123.51" y="54.43" width="7.46" height="35.34"/></g></g></svg>