<svg id="Layer_1" data-name="Layer 1" xmlns="http://www.w3.org/2000/svg" xmlns:xlink="http://www.w3.org/1999/xlink" viewBox="0 0 150 150"><defs><style>.cls-1{fill:none;}.cls-2{clip-path:url(#clip-path);}.cls-3{opacity:0.7;}</style><clipPath id="clip-path"><rect class="cls-1" x="0.19" y="0.19" width="149.63" height="149.63"/></clipPath></defs><title>icon 5</title><g class="cls-2"><g class="cls-3"><path d="M38.89,9.62V38.89H9.62V9.62H38.89m.77-5.44H8.85A4.67,4.67,0,0,0,4.18,8.85V39.66a4.67,4.67,0,0,0,4.67,4.67H39.66a4.67,4.67,0,0,0,4.67-4.67V8.85a4.67,4.67,0,0,0-4.67-4.67Z"/><path d="M39.66,45.32H8.85a5.67,5.67,0,0,1-5.66-5.66V8.85A5.67,5.67,0,0,1,8.85,3.19H39.66a5.66,5.66,0,0,1,5.66,5.66V39.66A5.66,5.66,0,0,1,39.66,45.32ZM8.85,5.18A3.67,3.67,0,0,0,5.18,8.85V39.66a3.68,3.68,0,0,0,3.67,3.68H39.66a3.68,3.68,0,0,0,3.68-3.68V8.85a3.67,3.67,0,0,0-3.68-3.67Zm31,34.71H8.63V8.63H39.89Zm-29.28-2H37.9V10.62H10.61Z"/></g><g class="cls-3"><path d="M89.64,9.62V38.89H60.36V9.62H89.64m.76-5.44H59.59a4.67,4.67,0,0,0-4.66,4.67V39.66a4.67,4.67,0,0,0,4.66,4.67H90.4a4.67,4.67,0,0,0,4.67-4.67V8.85A4.67,4.67,0,0,0,90.4,4.18Z"/><path d="M90.4,45.32H59.59a5.67,5.67,0,0,1-5.66-5.66V8.85a5.67,5.67,0,0,1,5.66-5.66H90.4a5.66,5.66,0,0,1,5.66,5.66V39.66A5.66,5.66,0,0,1,90.4,45.32ZM59.59,5.18a3.67,3.67,0,0,0-3.67,3.67V39.66a3.68,3.68,0,0,0,3.67,3.68H90.4a3.68,3.68,0,0,0,3.68-3.68V8.85A3.67,3.67,0,0,0,90.4,5.18Zm31,34.71H59.37V8.63H90.63Zm-29.28-2H88.64V10.62H61.35Z"/></g><g class="cls-3"><path d="M140.38,9.62V38.89H111.1V9.62h29.28m.77-5.44H110.34a4.67,4.67,0,0,0-4.67,4.67V39.66a4.67,4.67,0,0,0,4.67,4.67h30.81a4.67,4.67,0,0,0,4.66-4.67V8.85a4.67,4.67,0,0,0-4.66-4.67Z"/><path d="M141.15,45.32H110.34a5.66,5.66,0,0,1-5.66-5.66V8.85a5.66,5.66,0,0,1,5.66-5.66h30.81a5.67,5.67,0,0,1,5.66,5.66V39.66A5.67,5.67,0,0,1,141.15,45.32ZM110.34,5.18a3.67,3.67,0,0,0-3.68,3.67V39.66a3.68,3.68,0,0,0,3.68,3.68h30.81a3.68,3.68,0,0,0,3.67-3.68V8.85a3.67,3.67,0,0,0-3.67-3.67Zm31,34.71H110.11V8.63h31.26Zm-29.27-2h27.29V10.62H112.1Z"/></g><g class="cls-3"><path d="M38.89,60.36V89.64H9.62V60.36H38.89m.77-5.43H8.85A4.67,4.67,0,0,0,4.18,59.6V90.41a4.67,4.67,0,0,0,4.67,4.66H39.66a4.67,4.67,0,0,0,4.67-4.66V59.6a4.67,4.67,0,0,0-4.67-4.67Z"/><path d="M39.66,96.07H8.85A5.67,5.67,0,0,1,3.19,90.4V59.6a5.67,5.67,0,0,1,5.66-5.66H39.66a5.66,5.66,0,0,1,5.66,5.66V90.4A5.66,5.66,0,0,1,39.66,96.07ZM8.85,55.92A3.68,3.68,0,0,0,5.18,59.6V90.4a3.68,3.68,0,0,0,3.67,3.68H39.66a3.68,3.68,0,0,0,3.68-3.68V59.6a3.68,3.68,0,0,0-3.68-3.68Zm31,34.71H8.63V59.37H39.89Zm-29.28-2H37.9V61.36H10.61Z"/></g><g class="cls-3"><path d="M89.64,60.36V89.64H60.36V60.36H89.64m.76-5.43H59.59a4.67,4.67,0,0,0-4.66,4.67V90.41a4.66,4.66,0,0,0,4.66,4.66H90.4a4.67,4.67,0,0,0,4.67-4.66V59.6a4.67,4.67,0,0,0-4.67-4.67Z"/><path d="M90.4,96.07H59.59a5.67,5.67,0,0,1-5.66-5.67V59.6a5.67,5.67,0,0,1,5.66-5.66H90.4a5.66,5.66,0,0,1,5.66,5.66V90.4A5.66,5.66,0,0,1,90.4,96.07ZM59.59,55.92a3.68,3.68,0,0,0-3.67,3.68V90.4a3.68,3.68,0,0,0,3.67,3.68H90.4a3.68,3.68,0,0,0,3.68-3.68V59.6a3.68,3.68,0,0,0-3.68-3.68Zm31,34.71H59.37V59.37H90.63Zm-29.28-2H88.64V61.36H61.35Z"/></g><g class="cls-3"><path d="M140.38,60.36V89.64H111.1V60.36h29.28m.77-5.43H110.34a4.67,4.67,0,0,0-4.67,4.67V90.41a4.67,4.67,0,0,0,4.67,4.66h30.81a4.66,4.66,0,0,0,4.66-4.66V59.6a4.67,4.67,0,0,0-4.66-4.67Z"/><path d="M141.15,96.07H110.34a5.66,5.66,0,0,1-5.66-5.67V59.6a5.66,5.66,0,0,1,5.66-5.66h30.81a5.67,5.67,0,0,1,5.66,5.66V90.4A5.67,5.67,0,0,1,141.15,96.07ZM110.34,55.92a3.68,3.68,0,0,0-3.68,3.68V90.4a3.68,3.68,0,0,0,3.68,3.68h30.81a3.68,3.68,0,0,0,3.67-3.68V59.6a3.68,3.68,0,0,0-3.67-3.68Zm31,34.71H110.11V59.37h31.26Zm-29.27-2h27.29V61.36H112.1Z"/></g><g class="cls-3"><path d="M38.89,111.11v29.27H9.62V111.11H38.89m.77-5.44H8.85a4.67,4.67,0,0,0-4.67,4.67v30.81a4.67,4.67,0,0,0,4.67,4.67H39.66a4.67,4.67,0,0,0,4.67-4.67V110.34a4.67,4.67,0,0,0-4.67-4.67Z"/><path d="M39.66,146.81H8.85a5.67,5.67,0,0,1-5.66-5.66V110.34a5.67,5.67,0,0,1,5.66-5.66H39.66a5.66,5.66,0,0,1,5.66,5.66v30.81A5.66,5.66,0,0,1,39.66,146.81ZM8.85,106.66a3.68,3.68,0,0,0-3.67,3.68v30.81a3.67,3.67,0,0,0,3.67,3.67H39.66a3.67,3.67,0,0,0,3.68-3.67V110.34a3.68,3.68,0,0,0-3.68-3.68Zm31,34.71H8.63V110.11H39.89Zm-29.28-2H37.9V112.1H10.61Z"/></g><g class="cls-3"><path d="M89.64,111.11v29.27H60.36V111.11H89.64m.76-5.44H59.59a4.67,4.67,0,0,0-4.66,4.67v30.81a4.67,4.67,0,0,0,4.66,4.67H90.4a4.67,4.67,0,0,0,4.67-4.67V110.34a4.67,4.67,0,0,0-4.67-4.67Z"/><path d="M90.4,146.81H59.59a5.67,5.67,0,0,1-5.66-5.66V110.34a5.67,5.67,0,0,1,5.66-5.66H90.4a5.66,5.66,0,0,1,5.66,5.66v30.81A5.66,5.66,0,0,1,90.4,146.81ZM59.59,106.66a3.68,3.68,0,0,0-3.67,3.68v30.81a3.67,3.67,0,0,0,3.67,3.67H90.4a3.67,3.67,0,0,0,3.68-3.67V110.34a3.68,3.68,0,0,0-3.68-3.68Zm31,34.71H59.37V110.11H90.63Zm-29.28-2H88.64V112.1H61.35Z"/></g><g class="cls-3"><path d="M140.38,111.11v29.27H111.1V111.11h29.28m.77-5.44H110.34a4.67,4.67,0,0,0-4.67,4.67v30.81a4.67,4.67,0,0,0,4.67,4.67h30.81a4.67,4.67,0,0,0,4.66-4.67V110.34a4.67,4.67,0,0,0-4.66-4.67Z"/><path d="M141.15,146.81H110.34a5.66,5.66,0,0,1-5.66-5.66V110.34a5.66,5.66,0,0,1,5.66-5.66h30.81a5.67,5.67,0,0,1,5.66,5.66v30.81A5.67,5.67,0,0,1,141.15,146.81Zm-30.81-40.15a3.68,3.68,0,0,0-3.68,3.68v30.81a3.67,3.67,0,0,0,3.68,3.67h30.81a3.67,3.67,0,0,0,3.67-3.67V110.34a3.68,3.68,0,0,0-3.67-3.68Zm31,34.71H110.11V110.11h31.26Zm-29.27-2h27.29V112.1H112.1Z"/></g></g></svg>