<svg id="Layer_1" data-name="Layer 1" xmlns="http://www.w3.org/2000/svg" xmlns:xlink="http://www.w3.org/1999/xlink" viewBox="0 0 150 150"><defs><style>.cls-1{fill:none;}.cls-2{opacity:0.7;}.cls-3{clip-path:url(#clip-path);}.cls-4{fill:#457699;}</style><clipPath id="clip-path"><rect class="cls-1" x="3.19" y="3.19" width="143.63" height="143.63"/></clipPath></defs><title>email</title><g class="cls-2"><g class="cls-3"><path class="cls-4" d="M129.28,19.79H20.75A17.57,17.57,0,0,0,3.19,37.35v74.18a17.58,17.58,0,0,0,17.56,17.56h108.5a17.58,17.58,0,0,0,17.56-17.56V37.38a17.55,17.55,0,0,0-17.53-17.59Zm9.54,91.74a9.55,9.55,0,0,1-9.54,9.54H20.75a9.55,9.55,0,0,1-9.54-9.54V37.38a9.55,9.55,0,0,1,9.54-9.54h108.5a9.55,9.55,0,0,1,9.54,9.54v74.15Zm0,0"/><path class="cls-4" d="M93.77,73.52,128.89,42a4,4,0,1,0-5.38-6L75.07,79.52l-9.45-8.44a.14.14,0,0,1-.05-.09,5.91,5.91,0,0,0-.66-.56L26.46,36a4,4,0,0,0-5.35,6L56.65,73.79,21.26,106.92a4,4,0,0,0-.18,5.68A4.11,4.11,0,0,0,24,113.88a4,4,0,0,0,2.73-1.08L62.68,79.19l9.75,8.71a4,4,0,0,0,2.67,1,4,4,0,0,0,2.68-1l10-9,35.72,33.93a4,4,0,0,0,5.68-.14A4,4,0,0,0,129,107Zm0,0"/><polygon class="cls-4" points="119.36 39.78 133.02 27.59 140.12 31.79 128.89 42.02 119.36 39.78"/><polygon class="cls-4" points="30.53 39.78 16.87 27.59 9.77 31.79 21 42.02 30.53 39.78"/><polygon class="cls-4" points="125.13 103.73 139.92 116.65 135.35 124.49 122.89 112.15 125.13 103.73"/><polygon class="cls-4" points="24.75 103.73 9.6 116.65 14.54 123.75 27 112.53 24.75 103.73"/></g></g></svg>