<svg id="Layer_1" data-name="Layer 1" xmlns="http://www.w3.org/2000/svg" xmlns:xlink="http://www.w3.org/1999/xlink" viewBox="0 0 150 150"><defs><style>.cls-1{fill:none;}.cls-2{opacity:0.7;}.cls-3{clip-path:url(#clip-path);}.cls-4{fill:#457699;}</style><clipPath id="clip-path"><rect class="cls-1" x="2.31" y="0.19" width="145.45" height="150"/></clipPath></defs><title>lupa</title><g class="cls-2"><g class="cls-3"><path class="cls-4" d="M145.81,134.08,109.89,97.94A57.69,57.69,0,0,0,124.19,60c0-32.51-27.33-59-60.95-59S2.31,27.5,2.31,60s27.34,59,60.93,59a61.59,61.59,0,0,0,34.92-10.67l36.2,36.43a8.12,8.12,0,0,0,11.23.21,7.52,7.52,0,0,0,.22-10.88ZM63.24,16.43C88.08,16.43,108.29,36,108.29,60s-20.21,43.6-45.05,43.6-45-19.56-45-43.6,20.21-43.58,45-43.58Zm0,0"/></g></g></svg>