<svg id="Layer_1" data-name="Layer 1" xmlns="http://www.w3.org/2000/svg" xmlns:xlink="http://www.w3.org/1999/xlink" viewBox="0 0 150 150"><defs><style>.cls-1{fill:none;}.cls-2{opacity:0.7;}.cls-3{clip-path:url(#clip-path);}.cls-4{fill:#457699;}.cls-5{clip-path:url(#clip-path-2);}</style><clipPath id="clip-path"><rect class="cls-1" x="-6.81" y="-4.81" width="159.63" height="159.63"/></clipPath><clipPath id="clip-path-2"><rect class="cls-1" x="-6.46" y="2.19" width="158.93" height="158.93"/></clipPath></defs><title>pais</title><g class="cls-2"><g class="cls-3"><path class="cls-4" d="M76.6,73A20.48,20.48,0,1,0,56.1,52.51,20.5,20.5,0,0,0,76.6,73Zm0-33.73A13.24,13.24,0,1,1,63.35,52.51,13.27,13.27,0,0,1,76.6,39.27Zm0,0"/><g class="cls-5"><path class="cls-4" d="M76.12,149.23l41.76-60.32C133.54,68,131.27,33.72,113,15.48a52.2,52.2,0,0,0-73.81,0C21,33.72,18.7,68,34.3,88.83ZM44,20.81a45.52,45.52,0,0,1,64.35,0c16,16,18,46.19,4.16,64.63L76.12,137.92,39.72,85.36C26,67,27.93,36.84,44,20.81Zm0,0"/></g></g></g></svg>