<svg id="Layer_1" data-name="Layer 1" xmlns="http://www.w3.org/2000/svg" xmlns:xlink="http://www.w3.org/1999/xlink" viewBox="0 0 150 150"><defs><style>.cls-1{fill:none;}.cls-2{opacity:0.7;}.cls-3{clip-path:url(#clip-path);}.cls-4{fill:#457699;}</style><clipPath id="clip-path"><rect class="cls-1" x="3.43" y="1.05" width="143.14" height="148.86"/></clipPath></defs><title>phone</title><g class="cls-2"><g class="cls-3"><path class="cls-4" d="M117.45,144.19c-5.92,0-13-1.5-20.88-4.45-17.19-6.48-35.87-19.27-52.65-36S14.33,68.22,7.86,51.05C2,35.41,2,22.58,7.83,16.7c.84-.83,1.7-1.74,2.59-2.67,5.36-5.64,11.42-12,19.43-11.7,5.54.23,10.9,3.68,16.38,10.51,16.22,20.15,8.9,27.35.44,35.66L45.18,50c-1.37,1.37-4,7.78,20.34,32.1,7.92,7.94,14.7,13.75,20.1,17.27,3.41,2.21,9.51,5.56,12,3.07l1.52-1.52c8.31-8.45,15.49-15.72,35.64.47,6.83,5.5,10.27,10.83,10.48,16.38.33,8-6,14.09-11.69,19.45-.93.89-1.84,1.75-2.68,2.59-2.91,2.91-7.57,4.38-13.44,4.38ZM29.29,7.11c-5.71,0-10.85,5.4-15.42,10.2-.91,1-1.8,1.91-2.68,2.78C6.83,24.46,7.28,36,12.33,49.37,18.57,65.93,31,84,47.3,100.32s34.39,28.72,51,35c13.42,5.05,24.9,5.5,29.26,1.12.89-.87,1.82-1.75,2.78-2.66,4.91-4.66,10.45-10,10.22-15.79-.16-4-3.1-8.34-8.71-12.86-16.78-13.49-21.48-8.74-29.26-.84L101,105.8c-3.73,3.72-9.76,2.91-18-2.43-5.71-3.7-12.72-9.74-20.9-17.89C41.94,65.28,35.49,52.94,41.8,46.6l1.54-1.49c7.92-7.79,12.69-12.49-.81-29.29C38,10.21,33.67,7.27,29.66,7.11Zm0,0"/><path class="cls-4" d="M117.45,144.69c-6,0-13.29-1.55-21-4.49-17.25-6.49-36-19.33-52.83-36.15S13.89,68.46,7.39,51.22c-6-15.81-5.93-28.85.09-34.87.68-.68,1.38-1.41,2.09-2.16l.49-.51C15.35,8.12,21.33,1.82,29.33,1.82h.54c5.69.24,11.17,3.74,16.75,10.7,16.5,20.5,9,27.84.4,36.33l-1.49,1.49c-.92.93-4.28,6.8,20.34,31.4,7.85,7.87,14.59,13.65,20,17.2,5.6,3.63,9.74,4.77,11.38,3.13l1.51-1.51c8.48-8.61,15.79-16.06,36.31.43,7,5.61,10.46,11.09,10.67,16.75.34,8.26-6.14,14.41-11.85,19.83l-.43.41c-.78.74-1.53,1.46-2.24,2.17C128.28,143.12,123.51,144.69,117.45,144.69ZM29.34,2.82c-7.58,0-13.4,6.13-18.56,11.55l-.48.51c-.72.76-1.42,1.5-2.11,2.18-5.73,5.74-5.68,18.37.13,33.81,6.46,17.11,19.23,35.74,36,52.47s35.35,29.48,52.47,35.93c7.65,2.89,14.8,4.42,20.7,4.42s10.32-1.47,13.08-4.24c.72-.71,1.48-1.43,2.26-2.18l.43-.41c5.56-5.28,11.86-11.26,11.54-19.07-.2-5.36-3.57-10.6-10.3-16-19.81-15.92-26.83-8.78-35-.51L98,102.79c-2.61,2.61-8.31-.2-12.63-3-5.5-3.59-12.29-9.42-20.19-17.34-24-24-22.21-30.92-20.34-32.81l1.5-1.49c8.29-8.15,15.45-15.19-.48-35-5.39-6.72-10.62-10.09-16-10.32ZM117.5,139.89c-5.38,0-12.13-1.38-19.43-4.14C81.47,129.5,63.31,117,46.94,100.67S18.14,66.18,11.86,49.55c-5.12-13.6-5.52-25.3-1-29.82.79-.78,1.64-1.65,2.66-2.76,4.63-4.86,9.86-10.36,15.79-10.36h.37c4.18.17,8.63,3.16,13.26,8.9,13.8,17.16,8.61,22.25.77,30L42.15,47c-6.07,6.1.4,18.23,20.34,38.18,8.24,8.2,15.24,14.2,20.82,17.82,8,5.19,13.8,6,17.33,2.49l1.54-1.54c7.7-7.81,12.79-13,29.93.81,5.74,4.62,8.73,9.07,8.9,13.23.24,6.11-5.4,11.45-10.38,16.17-1,.95-1.9,1.81-2.77,2.66C125.78,138.86,122.15,139.89,117.5,139.89ZM29.64,7.61h-.35c-5.5,0-10.58,5.34-15.06,10.05-1,1.11-1.89,2-2.69,2.78C7.33,24.68,7.82,36,12.8,49.19,19,65.7,31.4,83.73,47.65,100S82,128.61,98.42,134.82c13.24,5,24.52,5.47,28.74,1.24.87-.86,1.78-1.73,2.72-2.62,4.89-4.63,10.35-9.81,10.13-15.46-.15-3.86-3-8.06-8.53-12.49-16.43-13.22-20.75-8.84-28.59-.88l-1.54,1.54c-3.91,3.91-10.16,3.12-18.58-2.36-5.64-3.66-12.7-9.7-21-18-20.43-20.44-26.9-33-20.34-39.6L43,44.75c8-7.84,12.38-12.16-.85-28.61C37.7,10.63,33.5,7.76,29.64,7.61Z"/></g></g></svg>