<svg id="Layer_1" data-name="Layer 1" xmlns="http://www.w3.org/2000/svg" xmlns:xlink="http://www.w3.org/1999/xlink" viewBox="0 0 150 150"><defs><style>.cls-1{fill:none;}.cls-2{clip-path:url(#clip-path);}.cls-3{fill:#ededed;}.cls-4{fill:#3f2e0f;}.cls-5{fill:#2b1e0a;}.cls-6{fill:#fedac6;}.cls-7{fill:#365779;}.cls-8{fill:#264560;}.cls-9{fill:#dbdbdb;}.cls-10{fill:#f5c4b0;}.cls-11{fill:#22282b;}</style><clipPath id="clip-path"><circle class="cls-1" cx="75" cy="75" r="71.81"/></clipPath></defs><title>female</title><g class="cls-2"><circle class="cls-3" cx="74.75" cy="74.19" r="77.07"/><path class="cls-4" d="M116.05,117.42c4-9.31,3-23.17-3.26-31.16h0a27.92,27.92,0,0,1-5.85-16.63V53.7A31.85,31.85,0,0,0,75.08,21.84h0A31.86,31.86,0,0,0,43.22,53.7V70.43a24.23,24.23,0,0,1-5.09,14.86l-1.46,1.86c-5.73,7.38-6.71,21.92-2.55,30.27Z"/><path class="cls-5" d="M54.6,46.87a49.35,49.35,0,0,1,5-21A31.89,31.89,0,0,0,43.22,53.7V70.43a24.23,24.23,0,0,1-5.09,14.86l-1.46,1.86c-5.73,7.38-6.71,21.92-2.55,30.27H72.81L61.43,85.56c-3.14-11-6.26-22.89-6.83-34.3Z"/><path class="cls-6" d="M122.87,156.11V128.93a18.19,18.19,0,0,0-15.93-18.06l-16.47-2.05a4.55,4.55,0,0,1-4-4.55V92.39H63.71v11.9a4.56,4.56,0,0,1-4,4.55l-16.47,2A18.2,18.2,0,0,0,27.32,129v27.15Z"/><path class="cls-7" d="M54.6,109.45l-11.38,1.42a18.2,18.2,0,0,0-15.93,18.06v27.18H54.6Z"/><path class="cls-7" d="M106.94,110.87l-11.37-1.42v46.66h27.3V128.93A18.19,18.19,0,0,0,106.94,110.87Z"/><path class="cls-8" d="M36.4,113.19a18.21,18.21,0,0,0-9.11,15.74v27.18H36.4Z"/><path class="cls-3" d="M92.84,109.11,75.08,140.18,57.33,109.11l-2.73.34v46.66h41V109.45Z"/><path class="cls-9" d="M63.71,119.7l-6.38-10.59-2.73.34v46.66h9.11Z"/><path class="cls-10" d="M86.46,101.49v-9.1H63.71v9.1A20.66,20.66,0,0,0,86.46,101.49Z"/><path class="cls-6" d="M102.39,58.25H97.84V71.91h4.55a6.83,6.83,0,0,0,0-13.66Z"/><path class="cls-6" d="M100.12,58.25,99.18,74a24.34,24.34,0,0,1-24.3,22.92h0A24.37,24.37,0,0,1,50.6,74.45l-.55-7.1S72.81,53.7,84.19,37.77C84.19,37.77,91,51.42,100.12,58.25Z"/><path class="cls-10" d="M58.56,61.69c-5,3.55-8.51,5.66-8.51,5.66l.55,7.1A24.27,24.27,0,0,0,64.37,94.53,69.66,69.66,0,0,1,58.56,61.69Z"/><path class="cls-11" d="M74.88,99.21A26.77,26.77,0,0,1,48.33,74.63l-.55-7.1a2.3,2.3,0,0,1,1.1-2.13c.22-.13,22.49-13.6,33.46-28.95a2.25,2.25,0,0,1,2-1,2.28,2.28,0,0,1,1.85,1.25c.07.13,6.71,13.26,15.26,19.68a2.24,2.24,0,0,1,.91,2l-.93,15.78A26.65,26.65,0,0,1,74.88,99.21ZM52.43,68.56l.44,5.72a22.07,22.07,0,0,0,44-.39l.86-14.58c-6.31-5.13-11.38-13-13.9-17.37C73.45,54.9,57,65.67,52.43,68.56Z"/><path class="cls-11" d="M32.05,116.09A30.74,30.74,0,0,1,34.8,85.85l1.53-2A22.16,22.16,0,0,0,41,70.42V53.7a34.14,34.14,0,1,1,68.27,0v6.83h-4.55V53.7a29.59,29.59,0,1,0-59.17,0V70.43a26.66,26.66,0,0,1-5.58,16.25l-1.45,1.87a26.13,26.13,0,0,0-2.28,25.65Z"/><path class="cls-11" d="M118.14,116.05,114,114.24l.36-.84A25.56,25.56,0,0,0,111,87.66a30.31,30.31,0,0,1-6.33-18l4.55-.07a25.81,25.81,0,0,0,5.37,15.28,30.11,30.11,0,0,1,3.91,30.33Z"/><path class="cls-11" d="M102.39,74.18h-2.27V69.63h2.27a4.55,4.55,0,0,0,0-9.1h-2.27V56h2.27a9.11,9.11,0,1,1,0,18.21Z"/><path class="cls-11" d="M75.08,142.45a2.26,2.26,0,0,1-2-1.14L54.9,109.45l4-2.26,16.23,28.4,16.24-28.4,4,2.26L77.06,141.31A2.28,2.28,0,0,1,75.08,142.45Z"/><path class="cls-11" d="M29.57,156.11H25V128.93a20.51,20.51,0,0,1,17.92-20.32l16.48-2a2.27,2.27,0,0,0,2-2.28V94.66H66v9.61a6.8,6.8,0,0,1-6,6.8l-16.48,2.05a16,16,0,0,0-13.94,15.81Z"/><path class="cls-11" d="M125.15,156.11H120.6V128.93a15.94,15.94,0,0,0-13.94-15.8l-16.47-2a6.83,6.83,0,0,1-6-6.83V94.66h4.55v9.61a2.28,2.28,0,0,0,2,2.29l16.47,2a20.51,20.51,0,0,1,17.93,20.32Z"/><rect class="cls-11" x="52.33" y="108.32" width="4.55" height="47.79"/><rect class="cls-11" x="93.29" y="108.32" width="4.55" height="47.79"/></g></svg>