<svg id="Layer_1" data-name="Layer 1" xmlns="http://www.w3.org/2000/svg" xmlns:xlink="http://www.w3.org/1999/xlink" viewBox="0 0 150 150"><defs><style>.cls-1{fill:none;}.cls-2{clip-path:url(#clip-path);}.cls-3{fill:#ededed;}.cls-4{fill:#fedac6;}.cls-5{fill:#f5c4b0;}.cls-6{fill:#3f2e0f;}.cls-7{fill:#dbdbdb;}.cls-8{fill:#eaeaea;}.cls-9{fill:#365779;}.cls-10{fill:#bfbfbf;}.cls-11{fill:#2b1e0a;}.cls-12{fill:#22282b;}</style><clipPath id="clip-path"><circle class="cls-1" cx="75" cy="75" r="72.07"/></clipPath></defs><title>male</title><g class="cls-2"><circle class="cls-3" cx="74.75" cy="74.19" r="72.32"/><path class="cls-4" d="M101.89,64.88H99.65V78.3h2.24a6.71,6.71,0,0,0,0-13.42Z"/><path class="cls-5" d="M46,71.59A6.7,6.7,0,0,0,52.7,78.3h2.23V64.88H52.7A6.71,6.71,0,0,0,46,71.59Z"/><path class="cls-6" d="M101.89,64.88l2.64-13.57a9.46,9.46,0,0,0-7.77-10.89,9.27,9.27,0,0,0-1.58-.13h0a9.83,9.83,0,0,0-9.3-6.71H59.41l-4.48-6.71L52.7,29.11a15.81,15.81,0,0,0,0,22.35H92.94Z"/><path class="cls-7" d="M108.73,116.47l-16.21-2.24L77.29,123l-15.22-8.7-16.21,2.23A17.9,17.9,0,0,0,30.34,134.2v24.59h93.91V134.2A17.88,17.88,0,0,0,108.73,116.47Z"/><polygon class="cls-4" points="92.52 114.32 90.71 114.07 90.71 98.42 63.88 98.42 63.88 114.07 62.07 114.32 77.29 123.02 92.52 114.32"/><polygon class="cls-8" points="63.88 131.96 77.29 123.02 63.88 114.07 59.41 114.07 63.88 131.96"/><polygon class="cls-8" points="77.29 123.02 90.71 131.96 95.18 114.07 90.71 114.07 77.29 123.02"/><polyline class="cls-9" points="70.58 158.79 72.82 134.2 70.58 127.49 77.29 123.02 84 127.49 81.77 134.2 84 158.79"/><path class="cls-5" d="M90.71,110.81V98.42H63.88v12.39C73.94,115.17,80.65,115.17,90.71,110.81Z"/><path class="cls-10" d="M30.34,134.2v24.59h8.94V118.72A17.88,17.88,0,0,0,30.34,134.2Z"/><path class="cls-4" d="M101.89,64.88V77.63a37,37,0,0,1-4.68,18h0a22.79,22.79,0,0,1-19.92,11.72h0A22.8,22.8,0,0,1,57.37,95.65h0a37.11,37.11,0,0,1-4.67-18V51.47H92.94Z"/><path class="cls-5" d="M61.64,51.47H52.7V77.63a37.11,37.11,0,0,0,4.67,18,22.7,22.7,0,0,0,9.75,9.26C59.41,82.77,61.64,51.47,61.64,51.47Z"/><path class="cls-11" d="M48.54,36.53A15.76,15.76,0,0,0,52.7,51.47H88.47C63.07,51.47,52.7,42.53,48.54,36.53Z"/><path class="cls-12" d="M101.89,80.54H99.65V76.06h2.24a4.47,4.47,0,1,0,0-8.94H99.65V62.65h2.24a8.95,8.95,0,0,1,0,17.89Z"/><path class="cls-12" d="M54.93,80.54H52.7a8.95,8.95,0,0,1,0-17.89h2.23v4.47H52.7a4.47,4.47,0,0,0,0,8.94h2.23Z"/><path class="cls-12" d="M77.3,109.6h0A25,25,0,0,1,55.42,96.73a39.41,39.41,0,0,1-5-19.1V51.47a2.24,2.24,0,0,1,2.24-2.24H92.94a2.23,2.23,0,0,1,1.86,1l9,13.41a2.28,2.28,0,0,1,.37,1.24V77.63a39.51,39.51,0,0,1-5,19.1A25,25,0,0,1,77.3,109.6Zm0-4.47h0a20.56,20.56,0,0,0,18-10.57,35,35,0,0,0,4.39-16.93V65.56L91.75,53.7H54.93V77.63a34.94,34.94,0,0,0,4.4,16.93,20.55,20.55,0,0,0,18,10.57Z"/><path class="cls-12" d="M104.09,67.49l-4.41-.74L102.32,51a7.22,7.22,0,0,0-5.93-8.32,5.7,5.7,0,0,0-1.21-.1h0A2.24,2.24,0,0,1,93.06,41a7.57,7.57,0,0,0-7.19-5.18H59.41a2.23,2.23,0,0,1-1.86-1l-3-4.44-.31.31a13.57,13.57,0,0,0,0,19.19l-3.15,3.17a18.06,18.06,0,0,1,0-25.52l2.23-2.24a2.24,2.24,0,0,1,3.44.34l3.81,5.72H85.88a12,12,0,0,1,10.84,6.8l.41.06a11.7,11.7,0,0,1,9.6,13.47Z"/><path class="cls-12" d="M32.58,158.79H28.1V134.2a20.2,20.2,0,0,1,17.46-19.95l16.08-2.14v-9.22h4.47v11.18a2.24,2.24,0,0,1-1.94,2.22l-18,2.39a15.7,15.7,0,0,0-13.57,15.51Z"/><path class="cls-12" d="M126.48,158.79H122V134.2a15.71,15.71,0,0,0-13.58-15.52l-18-2.39a2.23,2.23,0,0,1-1.94-2.21V102.9h4.47v9.22L109,114.25a20.19,20.19,0,0,1,17.46,19.95v24.59Z"/><rect x="46" y="143.19" width="4.47" height="17.89"/><rect x="104.13" y="140.9" width="4.47" height="17.89"/><path class="cls-12" d="M63.88,134.2a2.28,2.28,0,0,1-.81-.15,2.25,2.25,0,0,1-1.36-1.55l-4.47-17.88,4.33-1.09,3.71,14.81,10.77-7.18,2.48,3.72-13.41,8.94A2.23,2.23,0,0,1,63.88,134.2Z"/><path class="cls-12" d="M77.29,125.25a2.33,2.33,0,0,1-1.11-.29L60.53,116l2.22-3.88,14.54,8.31,14.54-8.31L94.05,116,78.4,125A2.27,2.27,0,0,1,77.29,125.25Z"/><path class="cls-12" d="M90.71,134.2a2.21,2.21,0,0,1-1.24-.38l-13.42-8.94,2.48-3.72,10.78,7.18L93,113.53l4.33,1.08L92.87,132.5A2.2,2.2,0,0,1,91.51,134,2,2,0,0,1,90.71,134.2Z"/><path class="cls-12" d="M72.81,159l-4.45-.4,2.19-24.13-2.09-6.27,4.24-1.41,2.24,6.71a2.33,2.33,0,0,1,.11.91Z"/><path class="cls-12" d="M81.77,159,79.54,134.4a2.15,2.15,0,0,1,.1-.91l2.24-6.71,4.24,1.42L84,134.46l2.19,24.13Z"/><rect class="cls-12" x="72.83" y="131.96" width="8.94" height="4.47"/></g></svg>