<svg id="Layer_1" data-name="Layer 1" xmlns="http://www.w3.org/2000/svg" xmlns:xlink="http://www.w3.org/1999/xlink" viewBox="0 0 300 300"><defs><style>.cls-1{fill:none;}.cls-2{fill:#365779;}.cls-3{fill:#457699;}.cls-4{clip-path:url(#clip-path);}.cls-31,.cls-33,.cls-5{fill:#fff;}.cls-6{fill:#f8efc8;}.cls-7{fill:#7bb9dc;}.cls-8{fill:#5ba1d3;}.cls-9{fill:#cacacb;}.cls-10{fill:#dc9e30;}.cls-11{fill:#d38635;}.cls-12{fill:#e8be2f;}.cls-13{clip-path:url(#clip-path-2);}.cls-14{opacity:0.1;}.cls-15{clip-path:url(#clip-path-3);}.cls-16{fill:#4d495a;}.cls-17{fill:#b3918b;}.cls-18{fill:#cb6747;}.cls-19{fill:#997d74;}.cls-20{clip-path:url(#clip-path-4);}.cls-21{clip-path:url(#clip-path-5);}.cls-22{clip-path:url(#clip-path-6);}.cls-23{fill:#ca6533;}.cls-24{fill:#c6533f;}.cls-25{fill:#e8c170;}.cls-26{fill:#d99546;}.cls-27{fill:#ca7d36;}.cls-28{fill:#db9b30;}.cls-29,.cls-33{opacity:0.1;isolation:isolate;}.cls-30{fill:#e7bd56;}.cls-31{opacity:0.6;}.cls-32{clip-path:url(#clip-path-7);}.cls-34{clip-path:url(#clip-path-8);}.cls-35{fill:#eac12f;}.cls-36{fill:#c6551c;}.cls-37{fill:#eaedee;}.cls-38{clip-path:url(#clip-path-9);}.cls-39{clip-path:url(#clip-path-10);}</style><clipPath id="clip-path"><path class="cls-1" d="M219.14,197.87l-136.61.26c-11.25,0-25.64-11.31-25.64-22.56L56.63,31.12c0-11.25,9.64-20.63,20.88-20.63h145c11.24,0,20.88,9.12,20.88,20.37v145C243.37,187.08,230.39,197.87,219.14,197.87Z"/></clipPath><clipPath id="clip-path-2"><rect class="cls-1" x="104.74" y="143.91" width="11.9" height="33.2"/></clipPath><clipPath id="clip-path-3"><rect class="cls-1" x="77.38" y="143.91" width="11.9" height="33.2"/></clipPath><clipPath id="clip-path-4"><rect class="cls-1" x="226.13" y="113.92" width="8.63" height="63.53"/></clipPath><clipPath id="clip-path-5"><rect class="cls-1" x="205.97" y="113.92" width="8.63" height="63.53"/></clipPath><clipPath id="clip-path-6"><rect class="cls-1" x="185.46" y="113.92" width="8.63" height="63.53"/></clipPath><clipPath id="clip-path-7"><polyline class="cls-1" points="142.49 91.88 154.18 91.88 154.18 56.57 142.49 56.57"/></clipPath><clipPath id="clip-path-8"><polyline class="cls-1" points="116.03 91.88 127.72 91.88 127.72 56.57 116.03 56.57"/></clipPath><clipPath id="clip-path-9"><rect class="cls-1" x="160.85" y="130.66" width="14.13" height="46.29"/></clipPath><clipPath id="clip-path-10"><rect class="cls-1" x="132.6" y="130.66" width="14.13" height="46.29"/></clipPath></defs><title>logo survey store</title><rect class="cls-2" x="52.54" y="5.89" width="194.92" height="194.92" rx="21.68" ry="21.68"/><rect class="cls-3" x="57.15" y="10.49" width="185.71" height="185.71" rx="18.53" ry="18.53"/><rect class="cls-2" x="57.15" y="92.52" width="185.71" height="13.64"/><g class="cls-4"><rect class="cls-2" x="57.15" y="177.25" width="185.71" height="20.53"/><rect class="cls-2" x="57.15" y="91.9" width="185.71" height="20.53"/></g><path class="cls-5" d="M230.36,47.06V39.59H217.19v7.47A9.1,9.1,0,0,1,215.76,52l-2.59,4a8.81,8.81,0,0,0-1.38,4.73V85a6.84,6.84,0,0,0,6.84,6.84h10.3A6.84,6.84,0,0,0,235.77,85V60.74A8.81,8.81,0,0,0,234.39,56l-2.59-4A9.11,9.11,0,0,1,230.36,47.06Z"/><path class="cls-6" d="M235.77,60.74V85a6.85,6.85,0,0,1-6.84,6.85h-5.15V39.59h6.59v7.46A9.11,9.11,0,0,0,231.8,52l2.59,4A8.81,8.81,0,0,1,235.77,60.74Z"/><rect class="cls-7" x="211.79" y="62.68" width="23.98" height="13.43"/><rect class="cls-8" x="223.78" y="62.68" width="11.99" height="13.43"/><path class="cls-7" d="M232.14,41.65H215.42V39.16A2.55,2.55,0,0,1,218,36.61h11.62a2.55,2.55,0,0,1,2.55,2.55v2.49Z"/><path class="cls-8" d="M232.14,39.16v2.49h-8.36v-5h5.81A2.55,2.55,0,0,1,232.14,39.16Z"/><path class="cls-5" d="M203.41,47.06V39.59H190.24v7.47A9.11,9.11,0,0,1,188.8,52l-2.58,4a8.74,8.74,0,0,0-1.39,4.73V85a6.85,6.85,0,0,0,6.85,6.84H202A6.85,6.85,0,0,0,208.82,85V60.74A8.74,8.74,0,0,0,207.43,56l-2.58-4A9.11,9.11,0,0,1,203.41,47.06Z"/><path class="cls-6" d="M208.82,60.74V85A6.85,6.85,0,0,1,202,91.83h-5.15V39.59h6.59v7.46A9.12,9.12,0,0,0,204.85,52l2.58,4A8.74,8.74,0,0,1,208.82,60.74Z"/><rect class="cls-7" x="184.83" y="62.68" width="23.98" height="13.43"/><rect class="cls-8" x="196.83" y="62.68" width="11.99" height="13.43"/><path class="cls-7" d="M205.19,41.65H188.47V39.16A2.55,2.55,0,0,1,191,36.61h11.61a2.56,2.56,0,0,1,2.56,2.55v2.49Z"/><path class="cls-8" d="M205.19,39.16v2.49h-8.37v-5h5.81A2.56,2.56,0,0,1,205.19,39.16Z"/><path class="cls-5" d="M176.09,47.06V39.59H162.92v7.47A9.11,9.11,0,0,1,161.48,52l-2.59,4a8.81,8.81,0,0,0-1.38,4.73V85a6.85,6.85,0,0,0,6.85,6.84h10.29A6.84,6.84,0,0,0,181.49,85V60.74A8.81,8.81,0,0,0,180.11,56l-2.58-4A9.11,9.11,0,0,1,176.09,47.06Z"/><path class="cls-6" d="M181.5,60.74V85a6.85,6.85,0,0,1-6.85,6.85H169.5V39.59h6.59v7.46A9.12,9.12,0,0,0,177.53,52l2.58,4A8.82,8.82,0,0,1,181.5,60.74Z"/><rect class="cls-7" x="157.51" y="62.68" width="23.98" height="13.43"/><rect class="cls-8" x="169.5" y="62.68" width="11.99" height="13.43"/><path class="cls-7" d="M177.86,41.65H161.14V39.16a2.55,2.55,0,0,1,2.55-2.55h11.62a2.55,2.55,0,0,1,2.55,2.55v2.49Z"/><path class="cls-8" d="M177.86,39.16v2.49H169.5v-5h5.81A2.55,2.55,0,0,1,177.86,39.16Z"/><path class="cls-9" d="M113.06,149.92H96.42a.66.66,0,0,1-.66-.67V145.4a.66.66,0,0,1,.66-.67h16.64a.67.67,0,0,1,.67.67v3.85a.67.67,0,0,1-.67.67Zm0,0"/><path class="cls-9" d="M99,146.35v-.95a.67.67,0,0,1,.66-.67H96.42a.66.66,0,0,0-.66.67v3.85a.66.66,0,0,0,.66.67h16.64a.67.67,0,0,0,.67-.67v-2.9Zm0,0"/><path class="cls-9" d="M113.06,177.06H96.42a.66.66,0,0,1-.66-.66v-3.86a.65.65,0,0,1,.66-.66h16.64a.66.66,0,0,1,.67.66v3.86a.67.67,0,0,1-.67.66Zm0,0"/><path class="cls-9" d="M113.73,175.44v-2.9a.66.66,0,0,0-.67-.66H96.42a.65.65,0,0,0-.66.66v3.86a.66.66,0,0,0,.66.66h3.25a.67.67,0,0,1-.66-.66v-1Zm0,0"/><path class="cls-10" d="M114.27,147.32H95.21a1.15,1.15,0,0,0-1.06.71l-1.25,3a1.6,1.6,0,0,0-.13.62V171.4a1.62,1.62,0,0,0,.26.88l1.08,1.66a1.14,1.14,0,0,0,1,.53h19.34a1.15,1.15,0,0,0,1-.53l1.07-1.66a1.62,1.62,0,0,0,.26-.88V151.66a1.59,1.59,0,0,0-.12-.62l-1.26-3a1.14,1.14,0,0,0-1.06-.71Zm0,0"/><path class="cls-10" d="M98,173.94l-1.08-1.66a1.7,1.7,0,0,1-.25-.88V151.66a1.59,1.59,0,0,1,.12-.62l1.25-3a1.15,1.15,0,0,1,1.06-.71h-3.9a1.15,1.15,0,0,0-1.06.71l-1.25,3a1.6,1.6,0,0,0-.13.62V171.4a1.62,1.62,0,0,0,.26.88l1.08,1.66a1.14,1.14,0,0,0,1,.53H99a1.14,1.14,0,0,1-1-.53Zm0,0"/><path class="cls-11" d="M92.85,171.88a1.59,1.59,0,0,0,.18.4l1.08,1.66a1.14,1.14,0,0,0,1,.53h19.34a1.15,1.15,0,0,0,1-.53l1.07-1.66a1.62,1.62,0,0,0,.19-.4Zm0,0"/><path class="cls-11" d="M114.27,147.32H95.21a1.15,1.15,0,0,0-1.06.71l-1.25,3a1.4,1.4,0,0,0-.09.29h23.87a1.4,1.4,0,0,0-.09-.29l-1.26-3a1.14,1.14,0,0,0-1.06-.71Zm0,0"/><path class="cls-11" d="M98,173.94l-1.08-1.66a1.59,1.59,0,0,1-.18-.4h-3.9a1.59,1.59,0,0,0,.18.4l1.08,1.66a1.14,1.14,0,0,0,1,.53H99a1.14,1.14,0,0,1-1-.53Zm0,0"/><path class="cls-11" d="M96.8,151l1.25-3a1.15,1.15,0,0,1,1.06-.71h-3.9a1.15,1.15,0,0,0-1.06.71l-1.25,3a1.4,1.4,0,0,0-.09.29h3.9a1.4,1.4,0,0,1,.09-.29Zm0,0"/><path class="cls-12" d="M92.77,171.4a1.52,1.52,0,0,0,.06.42c8.34-.68,15.53-6.08,23.88-6.73V151.66a2.11,2.11,0,0,0,0-.26c-8.36.66-15.56,6.07-23.92,6.72Zm0,0"/><path class="cls-12" d="M92.79,171.59v0s0,.07,0,.1h0l0,.1a26,26,0,0,0,3.85-.63v-13.7a24.33,24.33,0,0,1-3.91.63V171.4a.41.41,0,0,0,0,.11.22.22,0,0,0,0,.08Zm0,0"/><g class="cls-13"><g class="cls-14"><path class="cls-5" d="M113.06,149.92H96.42a.66.66,0,0,1-.66-.67V145.4a.66.66,0,0,1,.66-.67h16.64a.67.67,0,0,1,.67.67v3.85a.67.67,0,0,1-.67.67Zm0,0"/><path class="cls-5" d="M99,146.35v-.95a.67.67,0,0,1,.66-.67H96.42a.66.66,0,0,0-.66.67v3.85a.66.66,0,0,0,.66.67h16.64a.67.67,0,0,0,.67-.67v-2.9Zm0,0"/><path class="cls-5" d="M113.06,177.06H96.42a.66.66,0,0,1-.66-.66v-3.86a.65.65,0,0,1,.66-.66h16.64a.66.66,0,0,1,.67.66v3.86a.67.67,0,0,1-.67.66Zm0,0"/><path class="cls-5" d="M113.73,175.44v-2.9a.66.66,0,0,0-.67-.66H96.42a.65.65,0,0,0-.66.66v3.86a.66.66,0,0,0,.66.66h3.25a.67.67,0,0,1-.66-.66v-1Zm0,0"/><path class="cls-5" d="M114.27,147.32H95.21a1.15,1.15,0,0,0-1.06.71l-1.25,3a1.6,1.6,0,0,0-.13.62V171.4a1.62,1.62,0,0,0,.26.88l1.08,1.66a1.14,1.14,0,0,0,1,.53h19.34a1.15,1.15,0,0,0,1-.53l1.07-1.66a1.62,1.62,0,0,0,.26-.88V151.66a1.59,1.59,0,0,0-.12-.62l-1.26-3a1.14,1.14,0,0,0-1.06-.71Zm0,0"/><path class="cls-5" d="M98,173.94l-1.08-1.66a1.7,1.7,0,0,1-.25-.88V151.66a1.59,1.59,0,0,1,.12-.62l1.25-3a1.15,1.15,0,0,1,1.06-.71h-3.9a1.15,1.15,0,0,0-1.06.71l-1.25,3a1.6,1.6,0,0,0-.13.62V171.4a1.62,1.62,0,0,0,.26.88l1.08,1.66a1.14,1.14,0,0,0,1,.53H99a1.14,1.14,0,0,1-1-.53Zm0,0"/><path class="cls-5" d="M92.85,171.88a1.59,1.59,0,0,0,.18.4l1.08,1.66a1.14,1.14,0,0,0,1,.53h19.34a1.15,1.15,0,0,0,1-.53l1.07-1.66a1.62,1.62,0,0,0,.19-.4Zm0,0"/><path class="cls-5" d="M114.27,147.32H95.21a1.15,1.15,0,0,0-1.06.71l-1.25,3a1.4,1.4,0,0,0-.09.29h23.87a1.4,1.4,0,0,0-.09-.29l-1.26-3a1.14,1.14,0,0,0-1.06-.71Zm0,0"/><path class="cls-5" d="M98,173.94l-1.08-1.66a1.59,1.59,0,0,1-.18-.4h-3.9a1.59,1.59,0,0,0,.18.4l1.08,1.66a1.14,1.14,0,0,0,1,.53H99a1.14,1.14,0,0,1-1-.53Zm0,0"/><path class="cls-5" d="M96.8,151l1.25-3a1.15,1.15,0,0,1,1.06-.71h-3.9a1.15,1.15,0,0,0-1.06.71l-1.25,3a1.4,1.4,0,0,0-.09.29h3.9a1.4,1.4,0,0,1,.09-.29Zm0,0"/><path class="cls-5" d="M92.77,171.4a1.52,1.52,0,0,0,.06.42c8.34-.68,15.53-6.08,23.88-6.73V151.66a2.11,2.11,0,0,0,0-.26c-8.36.66-15.56,6.07-23.92,6.72Zm0,0"/><path class="cls-5" d="M92.79,171.59v0s0,.07,0,.1h0l0,.1a26,26,0,0,0,3.85-.63v-13.7a24.33,24.33,0,0,1-3.91.63V171.4a.41.41,0,0,0,0,.11.22.22,0,0,0,0,.08Zm0,0"/></g></g><path class="cls-9" d="M85.7,149.92H69.06a.67.67,0,0,1-.67-.67V145.4a.67.67,0,0,1,.67-.67H85.7a.67.67,0,0,1,.66.67v3.85a.67.67,0,0,1-.66.67Zm0,0"/><path class="cls-9" d="M71.65,146.35v-.95a.66.66,0,0,1,.66-.67H69.06a.67.67,0,0,0-.67.67v3.85a.67.67,0,0,0,.67.67H85.7a.67.67,0,0,0,.66-.67v-2.9Zm0,0"/><path class="cls-9" d="M85.7,177.06H69.06a.67.67,0,0,1-.67-.66v-3.86a.66.66,0,0,1,.67-.66H85.7a.66.66,0,0,1,.66.66v3.86a.67.67,0,0,1-.66.66Zm0,0"/><path class="cls-9" d="M86.36,175.44v-2.9a.66.66,0,0,0-.66-.66H69.06a.66.66,0,0,0-.67.66v3.86a.67.67,0,0,0,.67.66h3.25a.66.66,0,0,1-.66-.66v-1Zm0,0"/><path class="cls-10" d="M86.91,147.32H67.85a1.14,1.14,0,0,0-1.06.71l-1.26,3a1.59,1.59,0,0,0-.12.62V171.4a1.62,1.62,0,0,0,.26.88l1.07,1.66a1.15,1.15,0,0,0,1,.53H87.05a1.14,1.14,0,0,0,1-.53l1.08-1.66a1.62,1.62,0,0,0,.26-.88V151.66a1.6,1.6,0,0,0-.13-.62L88,148a1.15,1.15,0,0,0-1.06-.71Zm0,0"/><path class="cls-10" d="M70.65,173.94l-1.08-1.66a1.62,1.62,0,0,1-.26-.88V151.66a1.44,1.44,0,0,1,.13-.62l1.25-3a1.15,1.15,0,0,1,1.06-.71h-3.9a1.14,1.14,0,0,0-1.06.71l-1.26,3a1.59,1.59,0,0,0-.12.62V171.4a1.62,1.62,0,0,0,.26.88l1.07,1.66a1.15,1.15,0,0,0,1,.53h3.9a1.14,1.14,0,0,1-1-.53Zm0,0"/><path class="cls-11" d="M65.48,171.88a1.62,1.62,0,0,0,.19.4l1.07,1.66a1.15,1.15,0,0,0,1,.53H87.05a1.14,1.14,0,0,0,1-.53l1.08-1.66a1.59,1.59,0,0,0,.18-.4Zm0,0"/><path class="cls-11" d="M86.91,147.32H67.85a1.14,1.14,0,0,0-1.06.71l-1.26,3a1.4,1.4,0,0,0-.09.29H89.31a1.4,1.4,0,0,0-.09-.29L88,148a1.15,1.15,0,0,0-1.06-.71Zm0,0"/><path class="cls-11" d="M70.65,173.94l-1.08-1.66a2.09,2.09,0,0,1-.19-.4h-3.9a1.62,1.62,0,0,0,.19.4l1.07,1.66a1.15,1.15,0,0,0,1,.53h3.9a1.14,1.14,0,0,1-1-.53Zm0,0"/><path class="cls-11" d="M69.44,151l1.25-3a1.15,1.15,0,0,1,1.06-.71h-3.9a1.14,1.14,0,0,0-1.06.71l-1.26,3a1.4,1.4,0,0,0-.09.29h3.9a2.47,2.47,0,0,1,.1-.29Zm0,0"/><path class="cls-12" d="M65.41,171.4a2,2,0,0,0,0,.42c8.35-.68,15.54-6.08,23.89-6.73V151.66a1.09,1.09,0,0,0,0-.26c-8.35.66-15.55,6.07-23.91,6.72Zm0,0"/><path class="cls-12" d="M65.42,171.59v0s0,.07,0,.1h0a.3.3,0,0,1,0,.1,26,26,0,0,0,3.85-.63v-13.7a24.2,24.2,0,0,1-3.9.63v13.39s0,.05,0,.08Zm0,0"/><g class="cls-15"><g class="cls-14"><path class="cls-5" d="M85.7,149.92H69.06a.67.67,0,0,1-.67-.67V145.4a.67.67,0,0,1,.67-.67H85.7a.67.67,0,0,1,.66.67v3.85a.67.67,0,0,1-.66.67Zm0,0"/><path class="cls-5" d="M71.65,146.35v-.95a.66.66,0,0,1,.66-.67H69.06a.67.67,0,0,0-.67.67v3.85a.67.67,0,0,0,.67.67H85.7a.67.67,0,0,0,.66-.67v-2.9Zm0,0"/><path class="cls-5" d="M85.7,177.06H69.06a.67.67,0,0,1-.67-.66v-3.86a.66.66,0,0,1,.67-.66H85.7a.66.66,0,0,1,.66.66v3.86a.67.67,0,0,1-.66.66Zm0,0"/><path class="cls-5" d="M86.36,175.44v-2.9a.66.66,0,0,0-.66-.66H69.06a.66.66,0,0,0-.67.66v3.86a.67.67,0,0,0,.67.66h3.25a.66.66,0,0,1-.66-.66v-1Zm0,0"/><path class="cls-5" d="M86.91,147.32H67.85a1.14,1.14,0,0,0-1.06.71l-1.26,3a1.59,1.59,0,0,0-.12.62V171.4a1.62,1.62,0,0,0,.26.88l1.07,1.66a1.15,1.15,0,0,0,1,.53H87.05a1.14,1.14,0,0,0,1-.53l1.08-1.66a1.62,1.62,0,0,0,.26-.88V151.66a1.6,1.6,0,0,0-.13-.62L88,148a1.15,1.15,0,0,0-1.06-.71Zm0,0"/><path class="cls-5" d="M70.65,173.94l-1.08-1.66a1.62,1.62,0,0,1-.26-.88V151.66a1.44,1.44,0,0,1,.13-.62l1.25-3a1.15,1.15,0,0,1,1.06-.71h-3.9a1.14,1.14,0,0,0-1.06.71l-1.26,3a1.59,1.59,0,0,0-.12.62V171.4a1.62,1.62,0,0,0,.26.88l1.07,1.66a1.15,1.15,0,0,0,1,.53h3.9a1.14,1.14,0,0,1-1-.53Zm0,0"/><path class="cls-5" d="M65.48,171.88a1.62,1.62,0,0,0,.19.4l1.07,1.66a1.15,1.15,0,0,0,1,.53H87.05a1.14,1.14,0,0,0,1-.53l1.08-1.66a1.59,1.59,0,0,0,.18-.4Zm0,0"/><path class="cls-5" d="M86.91,147.32H67.85a1.14,1.14,0,0,0-1.06.71l-1.26,3a1.4,1.4,0,0,0-.09.29H89.31a1.4,1.4,0,0,0-.09-.29L88,148a1.15,1.15,0,0,0-1.06-.71Zm0,0"/><path class="cls-5" d="M70.65,173.94l-1.08-1.66a2.09,2.09,0,0,1-.19-.4h-3.9a1.62,1.62,0,0,0,.19.4l1.07,1.66a1.15,1.15,0,0,0,1,.53h3.9a1.14,1.14,0,0,1-1-.53Zm0,0"/><path class="cls-5" d="M69.44,151l1.25-3a1.15,1.15,0,0,1,1.06-.71h-3.9a1.14,1.14,0,0,0-1.06.71l-1.26,3a1.4,1.4,0,0,0-.09.29h3.9a2.47,2.47,0,0,1,.1-.29Zm0,0"/><path class="cls-5" d="M65.41,171.4a2,2,0,0,0,0,.42c8.35-.68,15.54-6.08,23.89-6.73V151.66a1.09,1.09,0,0,0,0-.26c-8.35.66-15.55,6.07-23.91,6.72Zm0,0"/><path class="cls-5" d="M65.42,171.59v0s0,.07,0,.1h0a.3.3,0,0,1,0,.1,26,26,0,0,0,3.85-.63v-13.7a24.2,24.2,0,0,1-3.9.63v13.39s0,.05,0,.08Zm0,0"/></g></g><path class="cls-16" d="M229.09,130V115.48h-5.92V130a12.38,12.38,0,0,1-2.83,7.88h0a12.3,12.3,0,0,0-2.84,7.87v29a2.66,2.66,0,0,0,2.66,2.65H232.1a2.66,2.66,0,0,0,2.66-2.65v-29a12.35,12.35,0,0,0-2.83-7.87h0A12.39,12.39,0,0,1,229.09,130Z"/><path class="cls-17" d="M229.64,123.65h-7v-8.46a1.27,1.27,0,0,1,1.26-1.27h4.5a1.27,1.27,0,0,1,1.26,1.27v8.46Z"/><path class="cls-18" d="M234.76,163.15H217.5V150.79h17.26Z"/><path class="cls-19" d="M230.18,124.23h-8.1a.87.87,0,0,1-.88-.88V122a.87.87,0,0,1,.88-.87h8.1a.87.87,0,0,1,.88.87v1.37A.87.87,0,0,1,230.18,124.23Z"/><g class="cls-20"><g class="cls-14"><path class="cls-5" d="M229.09,130V115.48h-5.92V130a12.38,12.38,0,0,1-2.83,7.88h0a12.3,12.3,0,0,0-2.84,7.87v29a2.66,2.66,0,0,0,2.66,2.65H232.1a2.66,2.66,0,0,0,2.66-2.65v-29a12.35,12.35,0,0,0-2.83-7.87h0A12.39,12.39,0,0,1,229.09,130Z"/><path class="cls-5" d="M229.64,123.65h-7v-8.46a1.27,1.27,0,0,1,1.26-1.27h4.5a1.27,1.27,0,0,1,1.26,1.27v8.46Z"/><path class="cls-5" d="M234.76,163.15h-10a1.18,1.18,0,0,1-1.18-1.19V152a1.18,1.18,0,0,1,1.18-1.18h10Z"/><path class="cls-5" d="M230.18,124.23h-8.1a.87.87,0,0,1-.88-.88V122a.87.87,0,0,1,.88-.87h8.1a.87.87,0,0,1,.88.87v1.37A.87.87,0,0,1,230.18,124.23Z"/></g></g><path class="cls-16" d="M208.93,130V115.48H203V130a12.38,12.38,0,0,1-2.83,7.88h0a12.35,12.35,0,0,0-2.83,7.87v29a2.66,2.66,0,0,0,2.66,2.65h11.94a2.65,2.65,0,0,0,2.65-2.65v-29a12.35,12.35,0,0,0-2.83-7.87h0A12.38,12.38,0,0,1,208.93,130Z"/><path class="cls-17" d="M209.48,123.65h-7v-8.46a1.26,1.26,0,0,1,1.26-1.27h4.49a1.27,1.27,0,0,1,1.27,1.27v8.46Z"/><path class="cls-18" d="M214.59,163.15H197.34V150.79h17.25Z"/><path class="cls-19" d="M210,124.23h-8.1a.87.87,0,0,1-.88-.88V122a.87.87,0,0,1,.88-.87H210a.88.88,0,0,1,.88.87v1.37A.88.88,0,0,1,210,124.23Z"/><g class="cls-21"><g class="cls-14"><path class="cls-5" d="M208.93,130V115.48H203V130a12.38,12.38,0,0,1-2.83,7.88h0a12.35,12.35,0,0,0-2.83,7.87v29a2.66,2.66,0,0,0,2.66,2.65h11.94a2.65,2.65,0,0,0,2.65-2.65v-29a12.35,12.35,0,0,0-2.83-7.87h0A12.38,12.38,0,0,1,208.93,130Z"/><path class="cls-5" d="M209.48,123.65h-7v-8.46a1.26,1.26,0,0,1,1.26-1.27h4.49a1.27,1.27,0,0,1,1.27,1.27v8.46Z"/><path class="cls-5" d="M214.59,163.15h-10a1.18,1.18,0,0,1-1.18-1.19V152a1.18,1.18,0,0,1,1.18-1.18h10Z"/><path class="cls-5" d="M210,124.23h-8.1a.87.87,0,0,1-.88-.88V122a.87.87,0,0,1,.88-.87H210a.88.88,0,0,1,.88.87v1.37A.88.88,0,0,1,210,124.23Z"/></g></g><path class="cls-16" d="M188.42,130V115.48h-5.93V130a12.38,12.38,0,0,1-2.83,7.88h0a12.35,12.35,0,0,0-2.83,7.87v29a2.66,2.66,0,0,0,2.66,2.65h11.94a2.66,2.66,0,0,0,2.66-2.65v-29a12.36,12.36,0,0,0-2.84-7.87h0A12.38,12.38,0,0,1,188.42,130Z"/><path class="cls-17" d="M189,123.65h-7v-8.46a1.26,1.26,0,0,1,1.26-1.27h4.49a1.27,1.27,0,0,1,1.27,1.27v8.46Z"/><path class="cls-18" d="M194.09,163.15H176.83V150.79h17.26Z"/><path class="cls-19" d="M189.51,124.23h-8.1a.87.87,0,0,1-.88-.88V122a.87.87,0,0,1,.88-.87h8.1a.88.88,0,0,1,.88.87v1.37A.88.88,0,0,1,189.51,124.23Z"/><g class="cls-22"><g class="cls-14"><path class="cls-5" d="M188.42,130V115.48h-5.93V130a12.38,12.38,0,0,1-2.83,7.88h0a12.35,12.35,0,0,0-2.83,7.87v29a2.66,2.66,0,0,0,2.66,2.65h11.94a2.66,2.66,0,0,0,2.66-2.65v-29a12.36,12.36,0,0,0-2.84-7.87h0A12.38,12.38,0,0,1,188.42,130Z"/><path class="cls-5" d="M189,123.65h-7v-8.46a1.26,1.26,0,0,1,1.26-1.27h4.49a1.27,1.27,0,0,1,1.27,1.27v8.46Z"/><path class="cls-5" d="M194.09,163.15h-10a1.18,1.18,0,0,1-1.18-1.19V152a1.18,1.18,0,0,1,1.18-1.18h10Z"/><path class="cls-5" d="M189.51,124.23h-8.1a.87.87,0,0,1-.88-.88V122a.87.87,0,0,1,.88-.87h8.1a.88.88,0,0,1,.88.87v1.37A.88.88,0,0,1,189.51,124.23Z"/></g></g><path class="cls-23" d="M66,41.65H99.11A1.34,1.34,0,0,1,100.44,43V91.73H64.67V43A1.33,1.33,0,0,1,66,41.65Z"/><rect class="cls-24" x="68.24" y="45.23" width="5.96" height="2.38" rx="1.19" ry="1.19"/><rect class="cls-24" x="68.24" y="50" width="5.96" height="2.38" rx="1.19" ry="1.19"/><path class="cls-25" d="M84.65,85.16h0a2.35,2.35,0,0,1-2.64,0h0a13.05,13.05,0,0,1-5.83-10.89v-8.5a8.26,8.26,0,0,1,5.64-7.84h0a4.87,4.87,0,0,1,3,0h0a8.26,8.26,0,0,1,5.64,7.84v8.5A13.05,13.05,0,0,1,84.65,85.16Z"/><rect class="cls-26" x="82.31" y="62.79" width="2.06" height="2.06" rx="1.03" ry="1.03"/><rect class="cls-26" x="82.31" y="66.9" width="2.06" height="2.06" rx="1.03" ry="1.03"/><rect class="cls-26" x="82.31" y="71.01" width="2.06" height="2.06" rx="1.03" ry="1.03"/><rect class="cls-26" x="78.19" y="62.79" width="2.06" height="2.06" rx="1.03" ry="1.03"/><rect class="cls-26" x="78.19" y="66.9" width="2.06" height="2.06" rx="1.03" ry="1.03"/><rect class="cls-26" x="78.19" y="71.01" width="2.06" height="2.06" rx="1.03" ry="1.03"/><rect class="cls-26" x="86.42" y="62.79" width="2.06" height="2.06" rx="1.03" ry="1.03"/><rect class="cls-26" x="86.42" y="66.9" width="2.06" height="2.06" rx="1.03" ry="1.03"/><rect class="cls-26" x="86.42" y="71.01" width="2.06" height="2.06" rx="1.03" ry="1.03"/><path class="cls-27" d="M94.06,72.93h0A13.11,13.11,0,0,0,81,86.05h4.77a7.13,7.13,0,0,0,7-5.87Z"/><path class="cls-26" d="M72.6,72.93h0A13.12,13.12,0,0,1,85.72,86.05H81a7.14,7.14,0,0,1-7-5.87Z"/><path class="cls-28" d="M150,62.61V58.69H135v3.92a1.83,1.83,0,0,1-.38,1.12L132.14,67a6.47,6.47,0,0,0-1.34,3.94V88.79a3.09,3.09,0,0,0,3.09,3.09h17.2a3.09,3.09,0,0,0,3.09-3.09V70.92A6.47,6.47,0,0,0,152.84,67l-2.49-3.25A1.83,1.83,0,0,1,150,62.61Z"/><path class="cls-29" d="M150.35,63.73a1.83,1.83,0,0,1-.38-1.12V61.27H135v1.34a1.83,1.83,0,0,1-.38,1.12l-.54.7a4.13,4.13,0,0,1,2.95.26h0a4.2,4.2,0,0,0,3.63,0h0a4.13,4.13,0,0,1,3.63,0h0a4.2,4.2,0,0,0,3.63,0h0a4.16,4.16,0,0,1,3-.26Z"/><path class="cls-30" d="M135,60.39h0a2.51,2.51,0,0,1-.79,1.83l-1.15,1.09a.31.31,0,0,0,.34.5h0a4.2,4.2,0,0,1,3.63,0h0a4.13,4.13,0,0,0,3.63,0h0a4.2,4.2,0,0,1,3.63,0h0a4.13,4.13,0,0,0,3.63,0h0a4.2,4.2,0,0,1,3.63,0h0a.31.31,0,0,0,.35-.5l-1.15-1.09a2.47,2.47,0,0,1-.79-1.83H135Z"/><path class="cls-29" d="M150,60.39H135a2.56,2.56,0,0,1-.25,1.09h15.45A2.55,2.55,0,0,1,150,60.39Z"/><path class="cls-30" d="M150.49,60.39h-16a1.31,1.31,0,0,1-1.31-1.31v-1.2a1.3,1.3,0,0,1,1.31-1.31h16a1.31,1.31,0,0,1,1.32,1.31v1.2A1.32,1.32,0,0,1,150.49,60.39Z"/><path class="cls-31" d="M149.92,72.27H135.06A1.68,1.68,0,0,0,133.38,74V87.24a1.68,1.68,0,0,0,1.68,1.68h14.86a1.68,1.68,0,0,0,1.67-1.68V74A1.68,1.68,0,0,0,149.92,72.27Z"/><g class="cls-32"><g class="cls-14"><path class="cls-5" d="M150,62.61V58.69H135v3.92a1.83,1.83,0,0,1-.38,1.12L132.14,67a6.47,6.47,0,0,0-1.34,3.94V88.79a3.09,3.09,0,0,0,3.09,3.09h17.2a3.09,3.09,0,0,0,3.09-3.09V70.92A6.47,6.47,0,0,0,152.84,67l-2.49-3.25A1.83,1.83,0,0,1,150,62.61Z"/><path class="cls-33" d="M150.35,63.73a1.83,1.83,0,0,1-.38-1.12V61.27H135v1.34a1.83,1.83,0,0,1-.38,1.12l-.54.7a4.13,4.13,0,0,1,2.95.26h0a4.2,4.2,0,0,0,3.63,0h0a4.13,4.13,0,0,1,3.63,0h0a4.2,4.2,0,0,0,3.63,0h0a4.16,4.16,0,0,1,3-.26Z"/><path class="cls-5" d="M135,60.39h0a2.51,2.51,0,0,1-.79,1.83l-1.15,1.09a.31.31,0,0,0,.34.5h0a4.2,4.2,0,0,1,3.63,0h0a4.13,4.13,0,0,0,3.63,0h0a4.2,4.2,0,0,1,3.63,0h0a4.13,4.13,0,0,0,3.63,0h0a4.2,4.2,0,0,1,3.63,0h0a.31.31,0,0,0,.35-.5l-1.15-1.09a2.47,2.47,0,0,1-.79-1.83H135Z"/><path class="cls-33" d="M150,60.39H135a2.56,2.56,0,0,1-.25,1.09h15.45A2.55,2.55,0,0,1,150,60.39Z"/><path class="cls-5" d="M150.49,60.39h-16a1.31,1.31,0,0,1-1.31-1.31v-1.2a1.3,1.3,0,0,1,1.31-1.31h16a1.31,1.31,0,0,1,1.32,1.31v1.2A1.32,1.32,0,0,1,150.49,60.39Z"/><path class="cls-5" d="M139.41,77.33a3.69,3.69,0,0,0,2.78.76.63.63,0,0,0,.59-.59,3.69,3.69,0,0,0-.76-2.78,3.37,3.37,0,0,0-2.37-.77,1,1,0,0,0-1,1A3.37,3.37,0,0,0,139.41,77.33Z"/><path class="cls-33" d="M139.41,77.33a3.69,3.69,0,0,0,2.78.76.63.63,0,0,0,.59-.59,3.69,3.69,0,0,0-.76-2.78,3.37,3.37,0,0,0-2.37-.77,1,1,0,0,0-1,1A3.37,3.37,0,0,0,139.41,77.33Z"/><path class="cls-5" d="M145.57,77.33a3.7,3.7,0,0,1-2.79.76.63.63,0,0,1-.58-.59,3.69,3.69,0,0,1,.76-2.78,3.34,3.34,0,0,1,2.37-.77,1,1,0,0,1,1,1A3.42,3.42,0,0,1,145.57,77.33Z"/><path class="cls-5" d="M142.49,81.34a.51.51,0,0,1-.52-.51v-.48a.52.52,0,1,1,1,0v.48A.51.51,0,0,1,142.49,81.34Z"/><path class="cls-5" d="M140.17,80.57a.52.52,0,0,1-.52-.52v-.48a.52.52,0,1,1,1,0v.48A.51.51,0,0,1,140.17,80.57Z"/><path class="cls-5" d="M140.92,82.92a.52.52,0,0,1-.52-.52v-.48a.52.52,0,1,1,1,0v.48A.52.52,0,0,1,140.92,82.92Z"/></g></g><path class="cls-28" d="M123.51,62.61V58.69h-15v3.92a1.83,1.83,0,0,1-.38,1.12L105.68,67a6.47,6.47,0,0,0-1.34,3.94V88.79a3.09,3.09,0,0,0,3.09,3.09h17.2a3.09,3.09,0,0,0,3.09-3.09V70.92A6.47,6.47,0,0,0,126.38,67l-2.49-3.25A1.83,1.83,0,0,1,123.51,62.61Z"/><path class="cls-29" d="M123.89,63.73a1.83,1.83,0,0,1-.38-1.12V61.27h-15v1.34a1.83,1.83,0,0,1-.38,1.12l-.54.7a4.16,4.16,0,0,1,3,.26h0a4.2,4.2,0,0,0,3.63,0h0a4.11,4.11,0,0,1,3.62,0h0a4.2,4.2,0,0,0,3.63,0h0a4.16,4.16,0,0,1,3-.26Z"/><path class="cls-30" d="M108.55,60.39h0a2.47,2.47,0,0,1-.79,1.83l-1.15,1.09a.31.31,0,0,0,.35.5h0a4.2,4.2,0,0,1,3.63,0h0a4.13,4.13,0,0,0,3.63,0h0a4.18,4.18,0,0,1,3.62,0h0a4.13,4.13,0,0,0,3.63,0h0a4.2,4.2,0,0,1,3.63,0h0a.31.31,0,0,0,.35-.5l-1.15-1.09a2.47,2.47,0,0,1-.79-1.83h-15Z"/><path class="cls-29" d="M123.51,60.39h-15a2.42,2.42,0,0,1-.25,1.09h15.46A2.42,2.42,0,0,1,123.51,60.39Z"/><path class="cls-30" d="M124,60.39H108a1.31,1.31,0,0,1-1.31-1.31v-1.2A1.31,1.31,0,0,1,108,56.57h16a1.31,1.31,0,0,1,1.31,1.31v1.2A1.31,1.31,0,0,1,124,60.39Z"/><path class="cls-31" d="M123.46,72.27H108.6A1.68,1.68,0,0,0,106.92,74V87.24a1.68,1.68,0,0,0,1.68,1.68h14.86a1.68,1.68,0,0,0,1.68-1.68V74A1.68,1.68,0,0,0,123.46,72.27Z"/><g class="cls-34"><g class="cls-14"><path class="cls-5" d="M123.51,62.61V58.69h-15v3.92a1.83,1.83,0,0,1-.38,1.12L105.68,67a6.47,6.47,0,0,0-1.34,3.94V88.79a3.09,3.09,0,0,0,3.09,3.09h17.2a3.09,3.09,0,0,0,3.09-3.09V70.92A6.47,6.47,0,0,0,126.38,67l-2.49-3.25A1.83,1.83,0,0,1,123.51,62.61Z"/><path class="cls-33" d="M123.89,63.73a1.83,1.83,0,0,1-.38-1.12V61.27h-15v1.34a1.83,1.83,0,0,1-.38,1.12l-.54.7a4.16,4.16,0,0,1,3,.26h0a4.2,4.2,0,0,0,3.63,0h0a4.11,4.11,0,0,1,3.62,0h0a4.2,4.2,0,0,0,3.63,0h0a4.16,4.16,0,0,1,3-.26Z"/><path class="cls-5" d="M108.55,60.39h0a2.47,2.47,0,0,1-.79,1.83l-1.15,1.09a.31.31,0,0,0,.35.5h0a4.2,4.2,0,0,1,3.63,0h0a4.13,4.13,0,0,0,3.63,0h0a4.18,4.18,0,0,1,3.62,0h0a4.13,4.13,0,0,0,3.63,0h0a4.2,4.2,0,0,1,3.63,0h0a.31.31,0,0,0,.35-.5l-1.15-1.09a2.47,2.47,0,0,1-.79-1.83h-15Z"/><path class="cls-33" d="M123.51,60.39h-15a2.42,2.42,0,0,1-.25,1.09h15.46A2.42,2.42,0,0,1,123.51,60.39Z"/><path class="cls-5" d="M124,60.39H108a1.31,1.31,0,0,1-1.31-1.31v-1.2A1.31,1.31,0,0,1,108,56.57h16a1.31,1.31,0,0,1,1.31,1.31v1.2A1.31,1.31,0,0,1,124,60.39Z"/><path class="cls-5" d="M113,77.33a3.69,3.69,0,0,0,2.78.76.63.63,0,0,0,.59-.59,3.69,3.69,0,0,0-.76-2.78,3.37,3.37,0,0,0-2.37-.77,1,1,0,0,0-1,1A3.37,3.37,0,0,0,113,77.33Z"/><path class="cls-33" d="M113,77.33a3.69,3.69,0,0,0,2.78.76.63.63,0,0,0,.59-.59,3.69,3.69,0,0,0-.76-2.78,3.37,3.37,0,0,0-2.37-.77,1,1,0,0,0-1,1A3.37,3.37,0,0,0,113,77.33Z"/><path class="cls-5" d="M119.11,77.33a3.69,3.69,0,0,1-2.78.76.63.63,0,0,1-.59-.59,3.69,3.69,0,0,1,.76-2.78,3.37,3.37,0,0,1,2.37-.77,1,1,0,0,1,1,1A3.37,3.37,0,0,1,119.11,77.33Z"/><path class="cls-5" d="M116,81.34a.51.51,0,0,1-.52-.51v-.48a.52.52,0,0,1,1,0v.48A.51.51,0,0,1,116,81.34Z"/><path class="cls-5" d="M113.71,80.57a.52.52,0,0,1-.52-.52v-.48a.52.52,0,0,1,.52-.52.52.52,0,0,1,.52.52v.48A.52.52,0,0,1,113.71,80.57Z"/><path class="cls-5" d="M114.46,82.92a.51.51,0,0,1-.51-.52v-.48a.52.52,0,1,1,1,0v.48A.52.52,0,0,1,114.46,82.92Z"/></g></g><rect class="cls-35" x="152.71" y="131.73" width="16.44" height="4.11"/><rect class="cls-35" x="160.85" y="131.73" width="8.3" height="4.11"/><path class="cls-35" d="M148.6,177h24.66V139.64l-4.11-.87H152.71l-4.11.87Zm0,0"/><path class="cls-35" d="M173.26,139.64l-4.11-.87h-8.3V177h12.41Zm0,0"/><path class="cls-36" d="M155.74,168.73h10.38a3,3,0,0,0,3-3V155.32a3,3,0,0,0-3-3H155.74a3,3,0,0,0-3,3V165.7a3,3,0,0,0,3,3Zm0,0"/><path class="cls-36" d="M166.12,152.29h-5.27v16.44h5.27a3,3,0,0,0,3-3V155.32a3,3,0,0,0-3-3Zm0,0"/><path class="cls-37" d="M148.6,139.64h24.66l-4.11-4.11H152.71Zm0,0"/><path class="cls-37" d="M169.15,135.53h-8.3v4.11h12.41Zm0,0"/><g class="cls-38"><g class="cls-14"><rect class="cls-5" x="152.71" y="131.73" width="16.44" height="4.11"/><rect class="cls-5" x="160.85" y="131.73" width="8.3" height="4.11"/><path class="cls-5" d="M148.6,177h24.66V139.64l-4.11-.87H152.71l-4.11.87Zm0,0"/><path class="cls-5" d="M173.26,139.64l-4.11-.87h-8.3V177h12.41Zm0,0"/><path class="cls-5" d="M155.74,168.73h10.38a3,3,0,0,0,3-3V155.32a3,3,0,0,0-3-3H155.74a3,3,0,0,0-3,3V165.7a3,3,0,0,0,3,3Zm0,0"/><path class="cls-5" d="M166.12,152.29h-5.27v16.44h5.27a3,3,0,0,0,3-3V155.32a3,3,0,0,0-3-3Zm0,0"/><path class="cls-5" d="M148.6,139.64h24.66l-4.11-4.11H152.71Zm0,0"/><path class="cls-5" d="M169.15,135.53h-8.3v4.11h12.41Zm0,0"/></g></g><rect class="cls-35" x="124.54" y="131.73" width="16.44" height="4.11"/><rect class="cls-35" x="132.68" y="131.73" width="8.3" height="4.11"/><path class="cls-35" d="M120.43,177H145.1V139.64l-4.11-.87H124.54l-4.11.87Zm0,0"/><path class="cls-35" d="M145.1,139.64l-4.11-.87h-8.31V177H145.1Zm0,0"/><path class="cls-36" d="M127.57,168.73H138a3,3,0,0,0,3-3V155.32a3,3,0,0,0-3-3H127.57a3,3,0,0,0-3,3V165.7a3,3,0,0,0,3,3Zm0,0"/><path class="cls-36" d="M138,152.29h-5.27v16.44H138a3,3,0,0,0,3-3V155.32a3,3,0,0,0-3-3Zm0,0"/><path class="cls-37" d="M120.43,139.64H145.1L141,135.53H124.54Zm0,0"/><path class="cls-37" d="M141,135.53h-8.31v4.11H145.1Zm0,0"/><g class="cls-39"><g class="cls-14"><rect class="cls-5" x="124.46" y="131.73" width="16.44" height="4.11"/><rect class="cls-5" x="132.6" y="131.73" width="8.3" height="4.11"/><path class="cls-5" d="M120.35,177H145V139.64l-4.11-.87H124.46l-4.11.87Zm0,0"/><path class="cls-5" d="M145,139.64l-4.11-.87H132.6V177H145Zm0,0"/><path class="cls-5" d="M127.49,168.73h10.39a3,3,0,0,0,3-3V155.32a3,3,0,0,0-3-3H127.49a3,3,0,0,0-3,3V165.7a3,3,0,0,0,3,3Zm0,0"/><path class="cls-5" d="M137.88,152.29H132.6v16.44h5.28a3,3,0,0,0,3-3V155.32a3,3,0,0,0-3-3Zm0,0"/><path class="cls-5" d="M120.35,139.64H145l-4.11-4.11H124.46Zm0,0"/><path class="cls-5" d="M140.91,135.53H132.6v4.11H145Zm0,0"/></g></g><rect class="cls-3" x="201.49" y="182.76" width="9.44" height="8.44" rx="1.9" ry="1.9"/><path class="cls-28" d="M205.43,189l-2.21-2.22a.91.91,0,0,1,0-1.29h0a.91.91,0,0,1,1.28,0l1.58,1.59a.49.49,0,0,0,.69,0l4.79-4.8a.92.92,0,0,1,1.29,0h0a.92.92,0,0,1,0,1.29L207.42,189A1.41,1.41,0,0,1,205.43,189Z"/><rect class="cls-3" x="141.64" y="182.76" width="9.44" height="8.44" rx="1.9" ry="1.9"/><path class="cls-28" d="M145.58,189l-2.21-2.22a.91.91,0,0,1,0-1.29h0a.91.91,0,0,1,1.28,0l1.58,1.59a.49.49,0,0,0,.69,0l4.79-4.8a.92.92,0,0,1,1.29,0h0a.92.92,0,0,1,0,1.29L147.57,189A1.41,1.41,0,0,1,145.58,189Z"/><rect class="cls-3" x="124.99" y="97.41" width="9.44" height="8.44" rx="1.9" ry="1.9"/><path class="cls-28" d="M128.93,103.65l-2.22-2.22a.92.92,0,0,1,0-1.29h0a.92.92,0,0,1,1.29,0l1.58,1.59a.49.49,0,0,0,.69,0l4.79-4.8a.91.91,0,0,1,1.28,0h0a.91.91,0,0,1,0,1.29l-5.43,5.43A1.41,1.41,0,0,1,128.93,103.65Z"/><rect class="cls-3" x="192.39" y="97.41" width="9.44" height="8.44" rx="1.9" ry="1.9"/><path class="cls-28" d="M196.33,103.65l-2.22-2.22a.91.91,0,0,1,0-1.29h0a.91.91,0,0,1,1.28,0l1.58,1.59a.49.49,0,0,0,.69,0l4.79-4.8a.92.92,0,0,1,1.29,0h0a.92.92,0,0,1,0,1.29l-5.43,5.43A1.41,1.41,0,0,1,196.33,103.65Z"/><rect class="cls-3" x="77.89" y="97.41" width="9.44" height="8.44" rx="1.9" ry="1.9"/><path class="cls-28" d="M81.83,103.65l-2.22-2.22a.92.92,0,0,1,0-1.29h0a.92.92,0,0,1,1.29,0l1.58,1.59a.49.49,0,0,0,.69,0L88,96.93a.91.91,0,0,1,1.28,0h0a.91.91,0,0,1,0,1.29l-5.43,5.43A1.41,1.41,0,0,1,81.83,103.65Z"/><rect class="cls-3" x="86.48" y="182.76" width="9.44" height="8.44" rx="1.9" ry="1.9"/><path class="cls-28" d="M90.42,189l-2.22-2.22a.91.91,0,0,1,0-1.29h0a.91.91,0,0,1,1.28,0l1.59,1.59a.48.48,0,0,0,.68,0l4.8-4.8a.91.91,0,0,1,1.28,0h0a.92.92,0,0,1,0,1.29L92.4,189A1.39,1.39,0,0,1,90.42,189Z"/><path class="cls-5" d="M33,291.42c-1.65,1.59-4.22,2.63-7.7,2.63s-5.94-.92-7.65-2.63c-2-2-2.69-4.52-2.69-9.17h5.26c0,2.87.31,4.46,1.47,5.69a4.79,4.79,0,0,0,3.61,1.34,4.81,4.81,0,0,0,3.73-1.4c1.16-1.29,1.4-2.94,1.4-5.81,0-5-.73-6.55-4.28-8l-5-2c-4.47-1.84-5.93-4.28-5.93-10.89,0-3.79,1.1-6.91,3.3-8.93a9.84,9.84,0,0,1,6.91-2.51,10,10,0,0,1,7.21,2.51c2.21,2.14,2.88,5,2.88,8.93H30.35c0-2.32-.24-3.91-1.35-5.26a4.26,4.26,0,0,0-3.54-1.47,4.4,4.4,0,0,0-3.37,1.35,7.64,7.64,0,0,0-1.52,5.2c0,4.28.67,5.56,4.15,7l4.9,2c4.95,2,6.11,5.07,6.11,11.92C35.73,286.47,35.12,289.34,33,291.42Z"/><path class="cls-5" d="M59.22,291.24a10.15,10.15,0,0,1-7.28,2.87,10,10,0,0,1-7.22-2.87,10.35,10.35,0,0,1-2.81-7.52V250.08h5.26V284c0,3.43,2.14,5.38,4.77,5.38s4.83-1.95,4.83-5.38V250.08H62v33.64A10.35,10.35,0,0,1,59.22,291.24Z"/><path class="cls-5" d="M85.51,293.62l-6-18.71H74.75v18.71H69.49V250.08h9.85c6.6,0,10.27,2.88,10.27,12.42,0,6.05-1.47,9.6-5.26,11.37L91,293.62ZM79.4,254.79H74.75v15.47H79.4c4,0,4.95-3.12,4.95-7.76S83.43,254.79,79.4,254.79Z"/><path class="cls-5" d="M108.38,293.62H103l-9.42-43.68h5.81l6.3,33.74,6.36-33.6h5.75Z"/><path class="cls-5" d="M122,293.62V250.08h16.82v4.71H127.22v14.62h5.65v4.71h-5.65v14.8h11.56v4.7Z"/><path class="cls-5" d="M154.68,276v17.61h-5.26V276l-8-25.93h5.75l4.89,18.59,4.89-18.59h5.81Z"/><path class="cls-5" d="M191.86,291.85c-1.41,1.41-3.36,2.14-6.18,2.14-2.63,0-4.71-.61-6.23-2.14-1.9-2-2.51-4-2.51-8.81h2.44c0,3.73.43,5.63,1.9,7.1a6,6,0,0,0,4.4,1.59,5.8,5.8,0,0,0,4.47-1.59c1.65-1.65,1.95-3.79,1.95-7.59,0-5.74-.91-7.95-4.77-9.54l-4.46-1.83c-4.46-1.83-5.63-4.34-5.63-10.82,0-3.67.92-6.55,2.76-8.38a8,8,0,0,1,6-2.27A8.33,8.33,0,0,1,192.1,252c2.08,2.14,2.45,4.46,2.45,8.07H192.1c0-3-.42-4.83-1.83-6.42a5.47,5.47,0,0,0-4.34-1.71,5.69,5.69,0,0,0-4.1,1.46c-1.53,1.47-2.14,4-2.14,6.91,0,5.51.73,7.22,5.08,9l4.46,1.84c4.53,1.83,5.32,5.44,5.32,11.37C194.55,287.14,193.76,289.89,191.86,291.85Z"/><path class="cls-5" d="M208.31,252.28v41.34h-2.44V252.28h-7.28v-2.2h17v2.2Z"/><path class="cls-5" d="M234.55,292a9,9,0,0,1-11.62,0c-2.57-2.63-3.06-5.07-3.06-20.12s.49-17.49,3.06-20.12a9,9,0,0,1,11.62,0c2.57,2.63,3,5.08,3,20.12S237.12,289.34,234.55,292Zm-1.72-38.65a6.25,6.25,0,0,0-8.19,0c-2,2.14-2.32,4-2.32,18.53s.36,16.39,2.32,18.53a6.25,6.25,0,0,0,8.19,0c2-2.14,2.33-4,2.33-18.53S234.79,255.46,232.83,253.32Z"/><path class="cls-5" d="M260.78,293.62l-6.54-20.12H248v20.12h-2.45V250.08h7.71c4.28,0,8.81,1.16,8.81,11.74,0,7.22-2.08,10.28-5.51,11.32l6.91,20.48Zm-7.34-41.34H248v19.08h5.44c4.59,0,6.18-3.18,6.18-9.54S258,252.28,253.44,252.28Z"/><path class="cls-5" d="M270.93,293.62V250.08H285v2.2H273.38v18.47h5.71V273h-5.71v18.47H285v2.2Z"/></svg>